<mxfile host="app.diagrams.net" modified="2024-03-11T12:10:06.584Z" agent="Mozilla/5.0 (Macintosh; Intel Mac OS X 10.15; rv:123.0) Gecko/20100101 Firefox/123.0" etag="xtyKxeZivJmN0s0fBbN0" version="23.1.7" type="google">
  <diagram name="Page-1" id="XaHQdt_zY93GtO0q_HVr">
    <mxGraphModel grid="1" page="1" gridSize="10" guides="1" tooltips="1" connect="1" arrows="1" fold="1" pageScale="1" pageWidth="827" pageHeight="1169" math="0" shadow="0">
      <root>
        <mxCell id="0" />
        <mxCell id="1" parent="0" />
        <mxCell id="dcCuuf07huxl4ICcwFyh-7" value="" style="rounded=0;whiteSpace=wrap;html=1;fillColor=#d5e8d4;strokeColor=#82b366;" vertex="1" parent="1">
          <mxGeometry x="-750" y="1202.5" width="700" height="880" as="geometry" />
        </mxCell>
        <mxCell id="dcCuuf07huxl4ICcwFyh-3" value="" style="rounded=0;whiteSpace=wrap;html=1;movable=0;resizable=0;rotatable=0;deletable=0;editable=0;locked=1;connectable=0;" vertex="1" parent="1">
          <mxGeometry x="-1460" y="-57" width="1200" height="910" as="geometry" />
        </mxCell>
        <mxCell id="dcCuuf07huxl4ICcwFyh-1" value="" style="rounded=0;whiteSpace=wrap;html=1;fillColor=#ffe6cc;strokeColor=#d79b00;movable=0;resizable=0;rotatable=0;deletable=0;editable=0;locked=1;connectable=0;" vertex="1" parent="1">
          <mxGeometry x="-1550" y="1200" width="600" height="520" as="geometry" />
        </mxCell>
        <mxCell id="s0sDFv0_OI3VWAacHpvH-14" value="" style="rounded=1;whiteSpace=wrap;html=1;" vertex="1" parent="1">
          <mxGeometry x="-545" y="1411.5" width="390" height="570" as="geometry" />
        </mxCell>
        <mxCell id="icJdx4v0XNylToA6OWyg-1" value="Utilisateur" style="shape=umlActor;verticalLabelPosition=bottom;verticalAlign=top;html=1;outlineConnect=0;" vertex="1" parent="1">
          <mxGeometry x="-660" y="1551.5" width="30" height="60" as="geometry" />
        </mxCell>
        <mxCell id="wRFksBZOgdgdFvHQeMfU-2" style="edgeStyle=orthogonalEdgeStyle;rounded=0;orthogonalLoop=1;jettySize=auto;html=1;entryX=0;entryY=0.5;entryDx=0;entryDy=0;" edge="1" parent="1" source="_cF-SQx5Dlpob3jZO9Bn-6" target="wRFksBZOgdgdFvHQeMfU-1">
          <mxGeometry relative="1" as="geometry" />
        </mxCell>
        <mxCell id="wRFksBZOgdgdFvHQeMfU-7" value="0, N" style="edgeLabel;html=1;align=center;verticalAlign=middle;resizable=0;points=[];" connectable="0" vertex="1" parent="wRFksBZOgdgdFvHQeMfU-2">
          <mxGeometry x="-0.5565" y="1" relative="1" as="geometry">
            <mxPoint y="1" as="offset" />
          </mxGeometry>
        </mxCell>
        <mxCell id="pRmCqwYuW7Spn1c_g_u7-4" value="0, N" style="edgeStyle=orthogonalEdgeStyle;rounded=0;orthogonalLoop=1;jettySize=auto;html=1;" edge="1" parent="1" source="_cF-SQx5Dlpob3jZO9Bn-6" target="pRmCqwYuW7Spn1c_g_u7-3">
          <mxGeometry relative="1" as="geometry">
            <Array as="points">
              <mxPoint x="-1260" y="400" />
              <mxPoint x="-1260" y="400" />
            </Array>
          </mxGeometry>
        </mxCell>
        <mxCell id="_cF-SQx5Dlpob3jZO9Bn-6" value="users" style="shape=table;startSize=30;container=1;collapsible=1;childLayout=tableLayout;fixedRows=1;rowLines=0;fontStyle=1;align=center;resizeLast=1;html=1;gradientColor=none;" vertex="1" parent="1">
          <mxGeometry x="-1320" y="200" width="200" height="180" as="geometry">
            <mxRectangle x="-1320" y="200" width="70" height="30" as="alternateBounds" />
          </mxGeometry>
        </mxCell>
        <mxCell id="_cF-SQx5Dlpob3jZO9Bn-7" value="" style="shape=tableRow;horizontal=0;startSize=0;swimlaneHead=0;swimlaneBody=0;fillColor=none;collapsible=0;dropTarget=0;points=[[0,0.5],[1,0.5]];portConstraint=eastwest;top=0;left=0;right=0;bottom=1;" vertex="1" parent="_cF-SQx5Dlpob3jZO9Bn-6">
          <mxGeometry y="30" width="200" height="30" as="geometry" />
        </mxCell>
        <mxCell id="_cF-SQx5Dlpob3jZO9Bn-8" value="PK" style="shape=partialRectangle;connectable=0;fillColor=none;top=0;left=0;bottom=0;right=0;fontStyle=1;overflow=hidden;whiteSpace=wrap;html=1;" vertex="1" parent="_cF-SQx5Dlpob3jZO9Bn-7">
          <mxGeometry width="30" height="30" as="geometry">
            <mxRectangle width="30" height="30" as="alternateBounds" />
          </mxGeometry>
        </mxCell>
        <mxCell id="_cF-SQx5Dlpob3jZO9Bn-9" value="uuid" style="shape=partialRectangle;connectable=0;fillColor=none;top=0;left=0;bottom=0;right=0;align=left;spacingLeft=6;fontStyle=5;overflow=hidden;whiteSpace=wrap;html=1;" vertex="1" parent="_cF-SQx5Dlpob3jZO9Bn-7">
          <mxGeometry x="30" width="170" height="30" as="geometry">
            <mxRectangle width="170" height="30" as="alternateBounds" />
          </mxGeometry>
        </mxCell>
        <mxCell id="_cF-SQx5Dlpob3jZO9Bn-10" value="" style="shape=tableRow;horizontal=0;startSize=0;swimlaneHead=0;swimlaneBody=0;fillColor=none;collapsible=0;dropTarget=0;points=[[0,0.5],[1,0.5]];portConstraint=eastwest;top=0;left=0;right=0;bottom=0;" vertex="1" parent="_cF-SQx5Dlpob3jZO9Bn-6">
          <mxGeometry y="60" width="200" height="30" as="geometry" />
        </mxCell>
        <mxCell id="_cF-SQx5Dlpob3jZO9Bn-11" value="" style="shape=partialRectangle;connectable=0;fillColor=none;top=0;left=0;bottom=0;right=0;editable=1;overflow=hidden;whiteSpace=wrap;html=1;" vertex="1" parent="_cF-SQx5Dlpob3jZO9Bn-10">
          <mxGeometry width="30" height="30" as="geometry">
            <mxRectangle width="30" height="30" as="alternateBounds" />
          </mxGeometry>
        </mxCell>
        <mxCell id="_cF-SQx5Dlpob3jZO9Bn-12" value="firstname" style="shape=partialRectangle;connectable=0;fillColor=none;top=0;left=0;bottom=0;right=0;align=left;spacingLeft=6;overflow=hidden;whiteSpace=wrap;html=1;" vertex="1" parent="_cF-SQx5Dlpob3jZO9Bn-10">
          <mxGeometry x="30" width="170" height="30" as="geometry">
            <mxRectangle width="170" height="30" as="alternateBounds" />
          </mxGeometry>
        </mxCell>
        <mxCell id="_cF-SQx5Dlpob3jZO9Bn-13" value="" style="shape=tableRow;horizontal=0;startSize=0;swimlaneHead=0;swimlaneBody=0;fillColor=none;collapsible=0;dropTarget=0;points=[[0,0.5],[1,0.5]];portConstraint=eastwest;top=0;left=0;right=0;bottom=0;" vertex="1" parent="_cF-SQx5Dlpob3jZO9Bn-6">
          <mxGeometry y="90" width="200" height="30" as="geometry" />
        </mxCell>
        <mxCell id="_cF-SQx5Dlpob3jZO9Bn-14" value="" style="shape=partialRectangle;connectable=0;fillColor=none;top=0;left=0;bottom=0;right=0;editable=1;overflow=hidden;whiteSpace=wrap;html=1;" vertex="1" parent="_cF-SQx5Dlpob3jZO9Bn-13">
          <mxGeometry width="30" height="30" as="geometry">
            <mxRectangle width="30" height="30" as="alternateBounds" />
          </mxGeometry>
        </mxCell>
        <mxCell id="_cF-SQx5Dlpob3jZO9Bn-15" value="lastname" style="shape=partialRectangle;connectable=0;fillColor=none;top=0;left=0;bottom=0;right=0;align=left;spacingLeft=6;overflow=hidden;whiteSpace=wrap;html=1;" vertex="1" parent="_cF-SQx5Dlpob3jZO9Bn-13">
          <mxGeometry x="30" width="170" height="30" as="geometry">
            <mxRectangle width="170" height="30" as="alternateBounds" />
          </mxGeometry>
        </mxCell>
        <mxCell id="_cF-SQx5Dlpob3jZO9Bn-16" value="" style="shape=tableRow;horizontal=0;startSize=0;swimlaneHead=0;swimlaneBody=0;fillColor=none;collapsible=0;dropTarget=0;points=[[0,0.5],[1,0.5]];portConstraint=eastwest;top=0;left=0;right=0;bottom=0;" vertex="1" parent="_cF-SQx5Dlpob3jZO9Bn-6">
          <mxGeometry y="120" width="200" height="30" as="geometry" />
        </mxCell>
        <mxCell id="_cF-SQx5Dlpob3jZO9Bn-17" value="" style="shape=partialRectangle;connectable=0;fillColor=none;top=0;left=0;bottom=0;right=0;editable=1;overflow=hidden;whiteSpace=wrap;html=1;" vertex="1" parent="_cF-SQx5Dlpob3jZO9Bn-16">
          <mxGeometry width="30" height="30" as="geometry">
            <mxRectangle width="30" height="30" as="alternateBounds" />
          </mxGeometry>
        </mxCell>
        <mxCell id="_cF-SQx5Dlpob3jZO9Bn-18" value="email" style="shape=partialRectangle;connectable=0;fillColor=none;top=0;left=0;bottom=0;right=0;align=left;spacingLeft=6;overflow=hidden;whiteSpace=wrap;html=1;" vertex="1" parent="_cF-SQx5Dlpob3jZO9Bn-16">
          <mxGeometry x="30" width="170" height="30" as="geometry">
            <mxRectangle width="170" height="30" as="alternateBounds" />
          </mxGeometry>
        </mxCell>
        <mxCell id="_cF-SQx5Dlpob3jZO9Bn-62" style="edgeStyle=orthogonalEdgeStyle;rounded=0;orthogonalLoop=1;jettySize=auto;html=1;entryX=0.5;entryY=0;entryDx=0;entryDy=0;" edge="1" parent="1" source="_cF-SQx5Dlpob3jZO9Bn-32" target="_cF-SQx5Dlpob3jZO9Bn-60">
          <mxGeometry relative="1" as="geometry">
            <Array as="points">
              <mxPoint x="-710" y="410" />
              <mxPoint x="-828" y="410" />
            </Array>
          </mxGeometry>
        </mxCell>
        <mxCell id="_cF-SQx5Dlpob3jZO9Bn-63" value="0, N" style="edgeLabel;html=1;align=center;verticalAlign=middle;resizable=0;points=[];" connectable="0" vertex="1" parent="_cF-SQx5Dlpob3jZO9Bn-62">
          <mxGeometry x="-0.7375" relative="1" as="geometry">
            <mxPoint y="-11" as="offset" />
          </mxGeometry>
        </mxCell>
        <mxCell id="pRmCqwYuW7Spn1c_g_u7-40" style="edgeStyle=orthogonalEdgeStyle;rounded=0;orthogonalLoop=1;jettySize=auto;html=1;" edge="1" parent="1" source="_cF-SQx5Dlpob3jZO9Bn-32" target="pRmCqwYuW7Spn1c_g_u7-39">
          <mxGeometry relative="1" as="geometry" />
        </mxCell>
        <mxCell id="pRmCqwYuW7Spn1c_g_u7-43" value="0, N" style="edgeLabel;html=1;align=center;verticalAlign=middle;resizable=0;points=[];" connectable="0" vertex="1" parent="pRmCqwYuW7Spn1c_g_u7-40">
          <mxGeometry x="-0.7772" y="1" relative="1" as="geometry">
            <mxPoint as="offset" />
          </mxGeometry>
        </mxCell>
        <mxCell id="_cF-SQx5Dlpob3jZO9Bn-32" value="decks" style="shape=table;startSize=30;container=1;collapsible=1;childLayout=tableLayout;fixedRows=1;rowLines=0;fontStyle=1;align=center;resizeLast=1;html=1;" vertex="1" parent="1">
          <mxGeometry x="-764" y="200" width="204" height="180" as="geometry" />
        </mxCell>
        <mxCell id="_cF-SQx5Dlpob3jZO9Bn-33" value="" style="shape=tableRow;horizontal=0;startSize=0;swimlaneHead=0;swimlaneBody=0;fillColor=none;collapsible=0;dropTarget=0;points=[[0,0.5],[1,0.5]];portConstraint=eastwest;top=0;left=0;right=0;bottom=1;" vertex="1" parent="_cF-SQx5Dlpob3jZO9Bn-32">
          <mxGeometry y="30" width="204" height="30" as="geometry" />
        </mxCell>
        <mxCell id="_cF-SQx5Dlpob3jZO9Bn-34" value="PK" style="shape=partialRectangle;connectable=0;fillColor=none;top=0;left=0;bottom=0;right=0;fontStyle=1;overflow=hidden;whiteSpace=wrap;html=1;" vertex="1" parent="_cF-SQx5Dlpob3jZO9Bn-33">
          <mxGeometry width="30" height="30" as="geometry">
            <mxRectangle width="30" height="30" as="alternateBounds" />
          </mxGeometry>
        </mxCell>
        <mxCell id="_cF-SQx5Dlpob3jZO9Bn-35" value="deck_id" style="shape=partialRectangle;connectable=0;fillColor=none;top=0;left=0;bottom=0;right=0;align=left;spacingLeft=6;fontStyle=5;overflow=hidden;whiteSpace=wrap;html=1;" vertex="1" parent="_cF-SQx5Dlpob3jZO9Bn-33">
          <mxGeometry x="30" width="174" height="30" as="geometry">
            <mxRectangle width="174" height="30" as="alternateBounds" />
          </mxGeometry>
        </mxCell>
        <mxCell id="_cF-SQx5Dlpob3jZO9Bn-36" value="" style="shape=tableRow;horizontal=0;startSize=0;swimlaneHead=0;swimlaneBody=0;fillColor=none;collapsible=0;dropTarget=0;points=[[0,0.5],[1,0.5]];portConstraint=eastwest;top=0;left=0;right=0;bottom=0;" vertex="1" parent="_cF-SQx5Dlpob3jZO9Bn-32">
          <mxGeometry y="60" width="204" height="30" as="geometry" />
        </mxCell>
        <mxCell id="_cF-SQx5Dlpob3jZO9Bn-37" value="FK" style="shape=partialRectangle;connectable=0;fillColor=none;top=0;left=0;bottom=0;right=0;editable=1;overflow=hidden;whiteSpace=wrap;html=1;" vertex="1" parent="_cF-SQx5Dlpob3jZO9Bn-36">
          <mxGeometry width="30" height="30" as="geometry">
            <mxRectangle width="30" height="30" as="alternateBounds" />
          </mxGeometry>
        </mxCell>
        <mxCell id="_cF-SQx5Dlpob3jZO9Bn-38" value="&lt;i&gt;uuid&lt;/i&gt;" style="shape=partialRectangle;connectable=0;fillColor=none;top=0;left=0;bottom=0;right=0;align=left;spacingLeft=6;overflow=hidden;whiteSpace=wrap;html=1;" vertex="1" parent="_cF-SQx5Dlpob3jZO9Bn-36">
          <mxGeometry x="30" width="174" height="30" as="geometry">
            <mxRectangle width="174" height="30" as="alternateBounds" />
          </mxGeometry>
        </mxCell>
        <mxCell id="_cF-SQx5Dlpob3jZO9Bn-39" value="" style="shape=tableRow;horizontal=0;startSize=0;swimlaneHead=0;swimlaneBody=0;fillColor=none;collapsible=0;dropTarget=0;points=[[0,0.5],[1,0.5]];portConstraint=eastwest;top=0;left=0;right=0;bottom=0;" vertex="1" parent="_cF-SQx5Dlpob3jZO9Bn-32">
          <mxGeometry y="90" width="204" height="30" as="geometry" />
        </mxCell>
        <mxCell id="_cF-SQx5Dlpob3jZO9Bn-40" value="" style="shape=partialRectangle;connectable=0;fillColor=none;top=0;left=0;bottom=0;right=0;editable=1;overflow=hidden;whiteSpace=wrap;html=1;" vertex="1" parent="_cF-SQx5Dlpob3jZO9Bn-39">
          <mxGeometry width="30" height="30" as="geometry">
            <mxRectangle width="30" height="30" as="alternateBounds" />
          </mxGeometry>
        </mxCell>
        <mxCell id="_cF-SQx5Dlpob3jZO9Bn-41" value="name" style="shape=partialRectangle;connectable=0;fillColor=none;top=0;left=0;bottom=0;right=0;align=left;spacingLeft=6;overflow=hidden;whiteSpace=wrap;html=1;" vertex="1" parent="_cF-SQx5Dlpob3jZO9Bn-39">
          <mxGeometry x="30" width="174" height="30" as="geometry">
            <mxRectangle width="174" height="30" as="alternateBounds" />
          </mxGeometry>
        </mxCell>
        <mxCell id="_cF-SQx5Dlpob3jZO9Bn-42" value="" style="shape=tableRow;horizontal=0;startSize=0;swimlaneHead=0;swimlaneBody=0;fillColor=none;collapsible=0;dropTarget=0;points=[[0,0.5],[1,0.5]];portConstraint=eastwest;top=0;left=0;right=0;bottom=0;" vertex="1" parent="_cF-SQx5Dlpob3jZO9Bn-32">
          <mxGeometry y="120" width="204" height="30" as="geometry" />
        </mxCell>
        <mxCell id="_cF-SQx5Dlpob3jZO9Bn-43" value="" style="shape=partialRectangle;connectable=0;fillColor=none;top=0;left=0;bottom=0;right=0;editable=1;overflow=hidden;whiteSpace=wrap;html=1;" vertex="1" parent="_cF-SQx5Dlpob3jZO9Bn-42">
          <mxGeometry width="30" height="30" as="geometry">
            <mxRectangle width="30" height="30" as="alternateBounds" />
          </mxGeometry>
        </mxCell>
        <mxCell id="_cF-SQx5Dlpob3jZO9Bn-44" value="visibility" style="shape=partialRectangle;connectable=0;fillColor=none;top=0;left=0;bottom=0;right=0;align=left;spacingLeft=6;overflow=hidden;whiteSpace=wrap;html=1;" vertex="1" parent="_cF-SQx5Dlpob3jZO9Bn-42">
          <mxGeometry x="30" width="174" height="30" as="geometry">
            <mxRectangle width="174" height="30" as="alternateBounds" />
          </mxGeometry>
        </mxCell>
        <mxCell id="CZmEvmNWL7ZaP0FKG7hW-24" style="edgeStyle=orthogonalEdgeStyle;rounded=0;orthogonalLoop=1;jettySize=auto;html=1;entryX=0;entryY=0.5;entryDx=0;entryDy=0;" edge="1" parent="1" source="CZmEvmNWL7ZaP0FKG7hW-8" target="CZmEvmNWL7ZaP0FKG7hW-13">
          <mxGeometry relative="1" as="geometry" />
        </mxCell>
        <mxCell id="CZmEvmNWL7ZaP0FKG7hW-8" value="" style="ellipse;whiteSpace=wrap;html=1;aspect=fixed;fillColor=#d5e8d4;strokeColor=#82b366;" vertex="1" parent="1">
          <mxGeometry x="230" y="75" width="290" height="290" as="geometry" />
        </mxCell>
        <mxCell id="CZmEvmNWL7ZaP0FKG7hW-11" value="Se connecter" style="ellipse;whiteSpace=wrap;html=1;" vertex="1" parent="1">
          <mxGeometry x="240" y="175" width="120" height="80" as="geometry" />
        </mxCell>
        <mxCell id="CZmEvmNWL7ZaP0FKG7hW-12" value="Créer un compte" style="ellipse;whiteSpace=wrap;html=1;" vertex="1" parent="1">
          <mxGeometry x="390" y="180" width="120" height="80" as="geometry" />
        </mxCell>
        <mxCell id="_cF-SQx5Dlpob3jZO9Bn-47" value="cards" style="shape=table;startSize=30;container=1;collapsible=1;childLayout=tableLayout;fixedRows=1;rowLines=0;fontStyle=1;align=center;resizeLast=1;html=1;" vertex="1" parent="1">
          <mxGeometry x="-928.5" y="555" width="200" height="181" as="geometry" />
        </mxCell>
        <mxCell id="_cF-SQx5Dlpob3jZO9Bn-48" value="" style="shape=tableRow;horizontal=0;startSize=0;swimlaneHead=0;swimlaneBody=0;fillColor=none;collapsible=0;dropTarget=0;points=[[0,0.5],[1,0.5]];portConstraint=eastwest;top=0;left=0;right=0;bottom=1;" vertex="1" parent="_cF-SQx5Dlpob3jZO9Bn-47">
          <mxGeometry y="30" width="200" height="30" as="geometry" />
        </mxCell>
        <mxCell id="_cF-SQx5Dlpob3jZO9Bn-49" value="PK" style="shape=partialRectangle;connectable=0;fillColor=none;top=0;left=0;bottom=0;right=0;fontStyle=1;overflow=hidden;whiteSpace=wrap;html=1;" vertex="1" parent="_cF-SQx5Dlpob3jZO9Bn-48">
          <mxGeometry width="30" height="30" as="geometry">
            <mxRectangle width="30" height="30" as="alternateBounds" />
          </mxGeometry>
        </mxCell>
        <mxCell id="_cF-SQx5Dlpob3jZO9Bn-50" value="card_id" style="shape=partialRectangle;connectable=0;fillColor=none;top=0;left=0;bottom=0;right=0;align=left;spacingLeft=6;fontStyle=5;overflow=hidden;whiteSpace=wrap;html=1;" vertex="1" parent="_cF-SQx5Dlpob3jZO9Bn-48">
          <mxGeometry x="30" width="170" height="30" as="geometry">
            <mxRectangle width="170" height="30" as="alternateBounds" />
          </mxGeometry>
        </mxCell>
        <mxCell id="_cF-SQx5Dlpob3jZO9Bn-51" value="" style="shape=tableRow;horizontal=0;startSize=0;swimlaneHead=0;swimlaneBody=0;fillColor=none;collapsible=0;dropTarget=0;points=[[0,0.5],[1,0.5]];portConstraint=eastwest;top=0;left=0;right=0;bottom=0;" vertex="1" parent="_cF-SQx5Dlpob3jZO9Bn-47">
          <mxGeometry y="60" width="200" height="30" as="geometry" />
        </mxCell>
        <mxCell id="_cF-SQx5Dlpob3jZO9Bn-52" value="FK" style="shape=partialRectangle;connectable=0;fillColor=none;top=0;left=0;bottom=0;right=0;editable=1;overflow=hidden;whiteSpace=wrap;html=1;" vertex="1" parent="_cF-SQx5Dlpob3jZO9Bn-51">
          <mxGeometry width="30" height="30" as="geometry">
            <mxRectangle width="30" height="30" as="alternateBounds" />
          </mxGeometry>
        </mxCell>
        <mxCell id="_cF-SQx5Dlpob3jZO9Bn-53" value="&lt;i style=&quot;&quot;&gt;deck_id&lt;/i&gt;" style="shape=partialRectangle;connectable=0;fillColor=none;top=0;left=0;bottom=0;right=0;align=left;spacingLeft=6;overflow=hidden;whiteSpace=wrap;html=1;" vertex="1" parent="_cF-SQx5Dlpob3jZO9Bn-51">
          <mxGeometry x="30" width="170" height="30" as="geometry">
            <mxRectangle width="170" height="30" as="alternateBounds" />
          </mxGeometry>
        </mxCell>
        <mxCell id="_cF-SQx5Dlpob3jZO9Bn-54" value="" style="shape=tableRow;horizontal=0;startSize=0;swimlaneHead=0;swimlaneBody=0;fillColor=none;collapsible=0;dropTarget=0;points=[[0,0.5],[1,0.5]];portConstraint=eastwest;top=0;left=0;right=0;bottom=0;" vertex="1" parent="_cF-SQx5Dlpob3jZO9Bn-47">
          <mxGeometry y="90" width="200" height="30" as="geometry" />
        </mxCell>
        <mxCell id="_cF-SQx5Dlpob3jZO9Bn-55" value="" style="shape=partialRectangle;connectable=0;fillColor=none;top=0;left=0;bottom=0;right=0;editable=1;overflow=hidden;whiteSpace=wrap;html=1;" vertex="1" parent="_cF-SQx5Dlpob3jZO9Bn-54">
          <mxGeometry width="30" height="30" as="geometry">
            <mxRectangle width="30" height="30" as="alternateBounds" />
          </mxGeometry>
        </mxCell>
        <mxCell id="_cF-SQx5Dlpob3jZO9Bn-56" value="front_content" style="shape=partialRectangle;connectable=0;fillColor=none;top=0;left=0;bottom=0;right=0;align=left;spacingLeft=6;overflow=hidden;whiteSpace=wrap;html=1;" vertex="1" parent="_cF-SQx5Dlpob3jZO9Bn-54">
          <mxGeometry x="30" width="170" height="30" as="geometry">
            <mxRectangle width="170" height="30" as="alternateBounds" />
          </mxGeometry>
        </mxCell>
        <mxCell id="_cF-SQx5Dlpob3jZO9Bn-57" value="" style="shape=tableRow;horizontal=0;startSize=0;swimlaneHead=0;swimlaneBody=0;fillColor=none;collapsible=0;dropTarget=0;points=[[0,0.5],[1,0.5]];portConstraint=eastwest;top=0;left=0;right=0;bottom=0;" vertex="1" parent="_cF-SQx5Dlpob3jZO9Bn-47">
          <mxGeometry y="120" width="200" height="30" as="geometry" />
        </mxCell>
        <mxCell id="_cF-SQx5Dlpob3jZO9Bn-58" value="" style="shape=partialRectangle;connectable=0;fillColor=none;top=0;left=0;bottom=0;right=0;editable=1;overflow=hidden;whiteSpace=wrap;html=1;" vertex="1" parent="_cF-SQx5Dlpob3jZO9Bn-57">
          <mxGeometry width="30" height="30" as="geometry">
            <mxRectangle width="30" height="30" as="alternateBounds" />
          </mxGeometry>
        </mxCell>
        <mxCell id="_cF-SQx5Dlpob3jZO9Bn-59" value="back_content" style="shape=partialRectangle;connectable=0;fillColor=none;top=0;left=0;bottom=0;right=0;align=left;spacingLeft=6;overflow=hidden;whiteSpace=wrap;html=1;" vertex="1" parent="_cF-SQx5Dlpob3jZO9Bn-57">
          <mxGeometry x="30" width="170" height="30" as="geometry">
            <mxRectangle width="170" height="30" as="alternateBounds" />
          </mxGeometry>
        </mxCell>
        <mxCell id="wRFksBZOgdgdFvHQeMfU-4" style="edgeStyle=orthogonalEdgeStyle;rounded=0;orthogonalLoop=1;jettySize=auto;html=1;" edge="1" parent="1" source="_cF-SQx5Dlpob3jZO9Bn-60" target="_cF-SQx5Dlpob3jZO9Bn-47">
          <mxGeometry relative="1" as="geometry" />
        </mxCell>
        <mxCell id="wRFksBZOgdgdFvHQeMfU-5" value="1, 1" style="edgeLabel;html=1;align=center;verticalAlign=middle;resizable=0;points=[];" connectable="0" vertex="1" parent="wRFksBZOgdgdFvHQeMfU-4">
          <mxGeometry x="0.3667" y="-2" relative="1" as="geometry">
            <mxPoint x="2" y="-9" as="offset" />
          </mxGeometry>
        </mxCell>
        <mxCell id="_cF-SQx5Dlpob3jZO9Bn-60" value="&lt;b&gt;Contient&lt;/b&gt;&lt;i&gt;&lt;br&gt;&lt;/i&gt;" style="ellipse;whiteSpace=wrap;html=1;align=center;" vertex="1" parent="1">
          <mxGeometry x="-897" y="445" width="137" height="55" as="geometry" />
        </mxCell>
        <mxCell id="CZmEvmNWL7ZaP0FKG7hW-25" style="edgeStyle=orthogonalEdgeStyle;rounded=0;orthogonalLoop=1;jettySize=auto;html=1;entryX=0;entryY=0.5;entryDx=0;entryDy=0;" edge="1" parent="1" source="CZmEvmNWL7ZaP0FKG7hW-13" target="CZmEvmNWL7ZaP0FKG7hW-17">
          <mxGeometry relative="1" as="geometry" />
        </mxCell>
        <mxCell id="CZmEvmNWL7ZaP0FKG7hW-35" style="edgeStyle=orthogonalEdgeStyle;rounded=0;orthogonalLoop=1;jettySize=auto;html=1;entryX=0.5;entryY=0;entryDx=0;entryDy=0;" edge="1" parent="1" source="CZmEvmNWL7ZaP0FKG7hW-13" target="CZmEvmNWL7ZaP0FKG7hW-30">
          <mxGeometry relative="1" as="geometry" />
        </mxCell>
        <mxCell id="CZmEvmNWL7ZaP0FKG7hW-13" value="" style="ellipse;whiteSpace=wrap;html=1;aspect=fixed;fillColor=#dae8fc;strokeColor=#6c8ebf;" vertex="1" parent="1">
          <mxGeometry x="710" y="75" width="290" height="290" as="geometry" />
        </mxCell>
        <mxCell id="CZmEvmNWL7ZaP0FKG7hW-14" value="Créer deck" style="ellipse;whiteSpace=wrap;html=1;" vertex="1" parent="1">
          <mxGeometry x="795" y="105" width="120" height="80" as="geometry" />
        </mxCell>
        <mxCell id="CZmEvmNWL7ZaP0FKG7hW-15" value="Voir deck" style="ellipse;whiteSpace=wrap;html=1;" vertex="1" parent="1">
          <mxGeometry x="730" y="220" width="120" height="80" as="geometry" />
        </mxCell>
        <mxCell id="CZmEvmNWL7ZaP0FKG7hW-16" value="Gérer deck (Supprimer, visibilité, etc...)" style="ellipse;whiteSpace=wrap;html=1;" vertex="1" parent="1">
          <mxGeometry x="860" y="220" width="120" height="80" as="geometry" />
        </mxCell>
        <mxCell id="CZmEvmNWL7ZaP0FKG7hW-17" value="" style="ellipse;whiteSpace=wrap;html=1;aspect=fixed;fillColor=#dae8fc;strokeColor=#6c8ebf;" vertex="1" parent="1">
          <mxGeometry x="1176" y="75" width="290" height="290" as="geometry" />
        </mxCell>
        <mxCell id="CZmEvmNWL7ZaP0FKG7hW-18" value="Créer cartes" style="ellipse;whiteSpace=wrap;html=1;" vertex="1" parent="1">
          <mxGeometry x="1261" y="105" width="120" height="80" as="geometry" />
        </mxCell>
        <mxCell id="CZmEvmNWL7ZaP0FKG7hW-19" value="Utiliser deck" style="ellipse;whiteSpace=wrap;html=1;" vertex="1" parent="1">
          <mxGeometry x="1196" y="220" width="120" height="80" as="geometry" />
        </mxCell>
        <mxCell id="CZmEvmNWL7ZaP0FKG7hW-20" value="Gérer cartes (Supprimer)" style="ellipse;whiteSpace=wrap;html=1;" vertex="1" parent="1">
          <mxGeometry x="1326" y="220" width="120" height="80" as="geometry" />
        </mxCell>
        <mxCell id="CZmEvmNWL7ZaP0FKG7hW-21" value="&lt;font style=&quot;font-size: 18px;&quot;&gt;Connexion&lt;/font&gt;" style="text;html=1;align=center;verticalAlign=middle;whiteSpace=wrap;rounded=0;" vertex="1" parent="1">
          <mxGeometry x="325" y="25" width="100" height="40" as="geometry" />
        </mxCell>
        <mxCell id="CZmEvmNWL7ZaP0FKG7hW-22" value="&lt;font style=&quot;font-size: 18px;&quot;&gt;Compte&lt;/font&gt;" style="text;html=1;align=center;verticalAlign=middle;whiteSpace=wrap;rounded=0;" vertex="1" parent="1">
          <mxGeometry x="805" y="25" width="100" height="40" as="geometry" />
        </mxCell>
        <mxCell id="CZmEvmNWL7ZaP0FKG7hW-23" value="&lt;font style=&quot;font-size: 18px;&quot;&gt;Deck&lt;/font&gt;" style="text;html=1;align=center;verticalAlign=middle;whiteSpace=wrap;rounded=0;" vertex="1" parent="1">
          <mxGeometry x="1271" y="25" width="100" height="40" as="geometry" />
        </mxCell>
        <mxCell id="wRFksBZOgdgdFvHQeMfU-6" style="edgeStyle=orthogonalEdgeStyle;rounded=0;orthogonalLoop=1;jettySize=auto;html=1;" edge="1" parent="1" source="wRFksBZOgdgdFvHQeMfU-1" target="_cF-SQx5Dlpob3jZO9Bn-32">
          <mxGeometry relative="1" as="geometry" />
        </mxCell>
        <mxCell id="wRFksBZOgdgdFvHQeMfU-8" value="0, N" style="edgeLabel;html=1;align=center;verticalAlign=middle;resizable=0;points=[];" connectable="0" vertex="1" parent="wRFksBZOgdgdFvHQeMfU-6">
          <mxGeometry x="0.381" y="3" relative="1" as="geometry">
            <mxPoint x="5" y="3" as="offset" />
          </mxGeometry>
        </mxCell>
        <mxCell id="wRFksBZOgdgdFvHQeMfU-1" value="&lt;i&gt;user_decks&lt;/i&gt;&lt;br&gt;&lt;b&gt;Possède&lt;br&gt;&lt;br&gt;&lt;/b&gt;progression&lt;br&gt;&lt;b&gt;&lt;br&gt;&lt;/b&gt;" style="ellipse;whiteSpace=wrap;html=1;align=center;" vertex="1" parent="1">
          <mxGeometry x="-1010" y="250" width="139" height="100" as="geometry" />
        </mxCell>
        <mxCell id="CZmEvmNWL7ZaP0FKG7hW-30" value="" style="ellipse;whiteSpace=wrap;html=1;aspect=fixed;fillColor=#ffe6cc;strokeColor=#d79b00;" vertex="1" parent="1">
          <mxGeometry x="710" y="505" width="290" height="290" as="geometry" />
        </mxCell>
        <mxCell id="CZmEvmNWL7ZaP0FKG7hW-31" value="Voir decks de l&#39;ami" style="ellipse;whiteSpace=wrap;html=1;" vertex="1" parent="1">
          <mxGeometry x="730" y="655" width="120" height="80" as="geometry" />
        </mxCell>
        <mxCell id="CZmEvmNWL7ZaP0FKG7hW-32" value="Ajouter ami" style="ellipse;whiteSpace=wrap;html=1;" vertex="1" parent="1">
          <mxGeometry x="795" y="545" width="120" height="80" as="geometry" />
        </mxCell>
        <mxCell id="CZmEvmNWL7ZaP0FKG7hW-33" value="Créer un groupe" style="ellipse;whiteSpace=wrap;html=1;" vertex="1" parent="1">
          <mxGeometry x="860" y="655" width="120" height="80" as="geometry" />
        </mxCell>
        <mxCell id="CZmEvmNWL7ZaP0FKG7hW-34" value="&lt;font style=&quot;font-size: 18px;&quot;&gt;Contacts&lt;/font&gt;" style="text;html=1;align=center;verticalAlign=middle;whiteSpace=wrap;rounded=0;" vertex="1" parent="1">
          <mxGeometry x="805" y="815" width="100" height="40" as="geometry" />
        </mxCell>
        <mxCell id="CZmEvmNWL7ZaP0FKG7hW-36" value="&lt;h1&gt;Groupe&lt;/h1&gt;&lt;p&gt;&lt;font style=&quot;font-size: 16px;&quot;&gt;Marche comme un deck partagé par plusieurs utilisateurs. Tout le monde a la possibilité de créer un deck, de consulter les decks existants et de les gérer a partit du moment où ces utilisateurs appartiennent au groupe.&lt;br&gt;L&#39;utilisateur qui crée le groupe est l&#39;administrateur, et il peut donner des rôles et gérer les autres membres du groupe.&lt;/font&gt;&lt;/p&gt;" style="text;html=1;spacing=5;spacingTop=-20;whiteSpace=wrap;overflow=hidden;rounded=0;" vertex="1" parent="1">
          <mxGeometry x="1050" y="577.5" width="310" height="267.5" as="geometry" />
        </mxCell>
        <mxCell id="wRFksBZOgdgdFvHQeMfU-11" value="&lt;i&gt;Visibility&lt;/i&gt;" style="swimlane;childLayout=stackLayout;horizontal=1;startSize=30;horizontalStack=0;rounded=1;fontSize=14;fontStyle=0;strokeWidth=2;resizeParent=0;resizeLast=1;shadow=0;dashed=0;align=center;arcSize=4;whiteSpace=wrap;html=1;fillColor=default;" vertex="1" parent="1">
          <mxGeometry x="-480" y="200" width="120" height="100" as="geometry" />
        </mxCell>
        <mxCell id="wRFksBZOgdgdFvHQeMfU-12" value="- public&lt;br&gt;- friend&lt;br&gt;- private" style="align=left;strokeColor=none;fillColor=none;spacingLeft=4;fontSize=12;verticalAlign=top;resizable=0;rotatable=0;part=1;html=1;" vertex="1" parent="wRFksBZOgdgdFvHQeMfU-11">
          <mxGeometry y="30" width="120" height="70" as="geometry" />
        </mxCell>
        <mxCell id="CZmEvmNWL7ZaP0FKG7hW-37" value="" style="whiteSpace=wrap;html=1;aspect=fixed;fillColor=#dae8fc;strokeColor=#6c8ebf;" vertex="1" parent="1">
          <mxGeometry x="250" y="475" width="40" height="40" as="geometry" />
        </mxCell>
        <mxCell id="CZmEvmNWL7ZaP0FKG7hW-38" value="&lt;font style=&quot;font-size: 24px;&quot;&gt;V0&lt;/font&gt;" style="text;html=1;align=center;verticalAlign=middle;whiteSpace=wrap;rounded=0;" vertex="1" parent="1">
          <mxGeometry x="290" y="475" width="80" height="40" as="geometry" />
        </mxCell>
        <mxCell id="CZmEvmNWL7ZaP0FKG7hW-39" value="" style="whiteSpace=wrap;html=1;aspect=fixed;fillColor=#d5e8d4;strokeColor=#82b366;" vertex="1" parent="1">
          <mxGeometry x="250" y="555" width="40" height="40" as="geometry" />
        </mxCell>
        <mxCell id="CZmEvmNWL7ZaP0FKG7hW-40" value="&lt;font style=&quot;font-size: 24px;&quot;&gt;V1&lt;/font&gt;" style="text;html=1;align=center;verticalAlign=middle;whiteSpace=wrap;rounded=0;" vertex="1" parent="1">
          <mxGeometry x="290" y="555" width="80" height="40" as="geometry" />
        </mxCell>
        <mxCell id="CZmEvmNWL7ZaP0FKG7hW-41" value="" style="whiteSpace=wrap;html=1;aspect=fixed;fillColor=#ffe6cc;strokeColor=#d79b00;" vertex="1" parent="1">
          <mxGeometry x="250" y="635" width="40" height="40" as="geometry" />
        </mxCell>
        <mxCell id="CZmEvmNWL7ZaP0FKG7hW-42" value="&lt;font style=&quot;font-size: 24px;&quot;&gt;V2&lt;/font&gt;" style="text;html=1;align=center;verticalAlign=middle;whiteSpace=wrap;rounded=0;" vertex="1" parent="1">
          <mxGeometry x="290" y="635" width="80" height="40" as="geometry" />
        </mxCell>
        <mxCell id="CZmEvmNWL7ZaP0FKG7hW-43" value="&lt;h1&gt;V0&lt;/h1&gt;&lt;p&gt;&lt;font style=&quot;font-size: 18px;&quot;&gt;Deck + Cartes&lt;/font&gt;&lt;/p&gt;" style="text;html=1;spacing=5;spacingTop=-20;whiteSpace=wrap;overflow=hidden;rounded=0;" vertex="1" parent="1">
          <mxGeometry x="235" y="755" width="190" height="120" as="geometry" />
        </mxCell>
        <mxCell id="CZmEvmNWL7ZaP0FKG7hW-44" value="&lt;h1&gt;V1&lt;/h1&gt;&lt;p&gt;&lt;font style=&quot;font-size: 18px;&quot;&gt;Comptes&lt;/font&gt;&lt;/p&gt;" style="text;html=1;spacing=5;spacingTop=-20;whiteSpace=wrap;overflow=hidden;rounded=0;" vertex="1" parent="1">
          <mxGeometry x="230" y="885" width="190" height="120" as="geometry" />
        </mxCell>
        <mxCell id="CZmEvmNWL7ZaP0FKG7hW-45" value="&lt;h1&gt;V2&lt;/h1&gt;&lt;p&gt;&lt;font style=&quot;font-size: 18px;&quot;&gt;Amis &amp;amp; groupes&lt;/font&gt;&lt;/p&gt;" style="text;html=1;spacing=5;spacingTop=-20;whiteSpace=wrap;overflow=hidden;rounded=0;" vertex="1" parent="1">
          <mxGeometry x="230" y="1025" width="190" height="120" as="geometry" />
        </mxCell>
        <mxCell id="wRFksBZOgdgdFvHQeMfU-29" style="edgeStyle=orthogonalEdgeStyle;rounded=0;orthogonalLoop=1;jettySize=auto;html=1;movable=0;resizable=0;rotatable=0;deletable=0;editable=0;locked=1;connectable=0;" edge="1" parent="1" source="wRFksBZOgdgdFvHQeMfU-17" target="wRFksBZOgdgdFvHQeMfU-23">
          <mxGeometry relative="1" as="geometry" />
        </mxCell>
        <mxCell id="wRFksBZOgdgdFvHQeMfU-17" value="&lt;b&gt;email&lt;/b&gt;" style="text;html=1;align=center;verticalAlign=middle;resizable=0;points=[];autosize=1;strokeColor=none;fillColor=none;movable=0;rotatable=0;deletable=0;editable=0;locked=1;connectable=0;" vertex="1" parent="1">
          <mxGeometry x="-1452.5" y="1418" width="50" height="30" as="geometry" />
        </mxCell>
        <mxCell id="wRFksBZOgdgdFvHQeMfU-18" value="&lt;div style=&quot;text-align: left; line-height: 200%;&quot;&gt;&lt;span style=&quot;background-color: initial;&quot;&gt;firstname&lt;/span&gt;&lt;/div&gt;&lt;div style=&quot;text-align: left; line-height: 200%;&quot;&gt;&lt;span style=&quot;background-color: initial;&quot;&gt;lastname&lt;/span&gt;&lt;/div&gt;&lt;div style=&quot;text-align: left; line-height: 200%;&quot;&gt;&lt;span style=&quot;background-color: initial;&quot;&gt;phone&lt;/span&gt;&lt;/div&gt;" style="text;html=1;align=center;verticalAlign=middle;resizable=0;points=[];autosize=1;strokeColor=none;fillColor=none;movable=0;rotatable=0;deletable=0;editable=0;locked=1;connectable=0;" vertex="1" parent="1">
          <mxGeometry x="-1377.5" y="1448" width="70" height="90" as="geometry" />
        </mxCell>
        <mxCell id="wRFksBZOgdgdFvHQeMfU-20" style="edgeStyle=orthogonalEdgeStyle;rounded=0;orthogonalLoop=1;jettySize=auto;html=1;entryX=-0.016;entryY=0.244;entryDx=0;entryDy=0;entryPerimeter=0;movable=0;resizable=0;rotatable=0;deletable=0;editable=0;locked=1;connectable=0;" edge="1" parent="1" source="wRFksBZOgdgdFvHQeMfU-17" target="wRFksBZOgdgdFvHQeMfU-18">
          <mxGeometry relative="1" as="geometry">
            <Array as="points">
              <mxPoint x="-1427.5" y="1470" />
            </Array>
          </mxGeometry>
        </mxCell>
        <mxCell id="wRFksBZOgdgdFvHQeMfU-21" style="edgeStyle=orthogonalEdgeStyle;rounded=0;orthogonalLoop=1;jettySize=auto;html=1;entryX=-0.022;entryY=0.518;entryDx=0;entryDy=0;entryPerimeter=0;movable=0;resizable=0;rotatable=0;deletable=0;editable=0;locked=1;connectable=0;" edge="1" parent="1" source="wRFksBZOgdgdFvHQeMfU-17" target="wRFksBZOgdgdFvHQeMfU-18">
          <mxGeometry relative="1" as="geometry">
            <Array as="points">
              <mxPoint x="-1427.5" y="1495" />
              <mxPoint x="-1397.5" y="1495" />
            </Array>
          </mxGeometry>
        </mxCell>
        <mxCell id="wRFksBZOgdgdFvHQeMfU-22" style="edgeStyle=orthogonalEdgeStyle;rounded=0;orthogonalLoop=1;jettySize=auto;html=1;entryX=-0.022;entryY=0.788;entryDx=0;entryDy=0;entryPerimeter=0;movable=0;resizable=0;rotatable=0;deletable=0;editable=0;locked=1;connectable=0;" edge="1" parent="1" source="wRFksBZOgdgdFvHQeMfU-17" target="wRFksBZOgdgdFvHQeMfU-18">
          <mxGeometry relative="1" as="geometry">
            <Array as="points">
              <mxPoint x="-1427.5" y="1519" />
            </Array>
          </mxGeometry>
        </mxCell>
        <mxCell id="wRFksBZOgdgdFvHQeMfU-36" style="edgeStyle=orthogonalEdgeStyle;rounded=0;orthogonalLoop=1;jettySize=auto;html=1;movable=0;resizable=0;rotatable=0;deletable=0;editable=0;locked=1;connectable=0;" edge="1" parent="1" source="wRFksBZOgdgdFvHQeMfU-23" target="wRFksBZOgdgdFvHQeMfU-30">
          <mxGeometry relative="1" as="geometry">
            <Array as="points">
              <mxPoint x="-1177.5" y="1499" />
              <mxPoint x="-1207.5" y="1499" />
            </Array>
          </mxGeometry>
        </mxCell>
        <mxCell id="wRFksBZOgdgdFvHQeMfU-23" value="&lt;b&gt;decks&lt;/b&gt;" style="text;html=1;align=center;verticalAlign=middle;resizable=0;points=[];autosize=1;strokeColor=none;fillColor=none;movable=0;rotatable=0;deletable=0;editable=0;locked=1;connectable=0;" vertex="1" parent="1">
          <mxGeometry x="-1195" y="1400" width="60" height="30" as="geometry" />
        </mxCell>
        <mxCell id="wRFksBZOgdgdFvHQeMfU-24" value="&lt;div style=&quot;text-align: left; line-height: 200%;&quot;&gt;name&lt;/div&gt;&lt;div style=&quot;text-align: left; line-height: 200%;&quot;&gt;visibilty&lt;/div&gt;" style="text;html=1;align=center;verticalAlign=middle;resizable=0;points=[];autosize=1;strokeColor=none;fillColor=none;movable=0;rotatable=0;deletable=0;editable=0;locked=1;connectable=0;" vertex="1" parent="1">
          <mxGeometry x="-1110" y="1445" width="60" height="60" as="geometry" />
        </mxCell>
        <mxCell id="wRFksBZOgdgdFvHQeMfU-26" style="edgeStyle=orthogonalEdgeStyle;rounded=0;orthogonalLoop=1;jettySize=auto;html=1;entryX=-0.018;entryY=0.745;entryDx=0;entryDy=0;entryPerimeter=0;movable=0;resizable=0;rotatable=0;deletable=0;editable=0;locked=1;connectable=0;" edge="1" parent="1" source="wRFksBZOgdgdFvHQeMfU-23" target="wRFksBZOgdgdFvHQeMfU-24">
          <mxGeometry relative="1" as="geometry">
            <Array as="points">
              <mxPoint x="-1164.5" y="1490" />
              <mxPoint x="-1134.5" y="1490" />
            </Array>
          </mxGeometry>
        </mxCell>
        <mxCell id="wRFksBZOgdgdFvHQeMfU-28" style="edgeStyle=orthogonalEdgeStyle;rounded=0;orthogonalLoop=1;jettySize=auto;html=1;entryX=-0.011;entryY=0.343;entryDx=0;entryDy=0;entryPerimeter=0;movable=0;resizable=0;rotatable=0;deletable=0;editable=0;locked=1;connectable=0;" edge="1" parent="1" source="wRFksBZOgdgdFvHQeMfU-23" target="wRFksBZOgdgdFvHQeMfU-24">
          <mxGeometry relative="1" as="geometry">
            <Array as="points">
              <mxPoint x="-1164.5" y="1466" />
              <mxPoint x="-1130.5" y="1466" />
            </Array>
          </mxGeometry>
        </mxCell>
        <mxCell id="wRFksBZOgdgdFvHQeMfU-30" value="&lt;b&gt;cards&lt;/b&gt;" style="text;html=1;align=center;verticalAlign=middle;resizable=0;points=[];autosize=1;strokeColor=none;fillColor=none;movable=0;rotatable=0;deletable=0;editable=0;locked=1;connectable=0;" vertex="1" parent="1">
          <mxGeometry x="-1237.5" y="1567.5" width="60" height="30" as="geometry" />
        </mxCell>
        <mxCell id="wRFksBZOgdgdFvHQeMfU-31" value="&lt;div style=&quot;text-align: left; line-height: 200%;&quot;&gt;name&lt;/div&gt;&lt;div style=&quot;text-align: left; line-height: 200%;&quot;&gt;visibilty&lt;/div&gt;" style="text;html=1;align=center;verticalAlign=middle;resizable=0;points=[];autosize=1;strokeColor=none;fillColor=none;movable=0;rotatable=0;deletable=0;editable=0;locked=1;connectable=0;" vertex="1" parent="1">
          <mxGeometry x="-1152.5" y="1612.5" width="60" height="60" as="geometry" />
        </mxCell>
        <mxCell id="wRFksBZOgdgdFvHQeMfU-32" style="edgeStyle=orthogonalEdgeStyle;rounded=0;orthogonalLoop=1;jettySize=auto;html=1;entryX=-0.018;entryY=0.745;entryDx=0;entryDy=0;entryPerimeter=0;movable=0;resizable=0;rotatable=0;deletable=0;editable=0;locked=1;connectable=0;" edge="1" parent="1" source="wRFksBZOgdgdFvHQeMfU-30" target="wRFksBZOgdgdFvHQeMfU-31">
          <mxGeometry relative="1" as="geometry">
            <Array as="points">
              <mxPoint x="-1207" y="1657.5" />
              <mxPoint x="-1177" y="1657.5" />
            </Array>
          </mxGeometry>
        </mxCell>
        <mxCell id="wRFksBZOgdgdFvHQeMfU-33" style="edgeStyle=orthogonalEdgeStyle;rounded=0;orthogonalLoop=1;jettySize=auto;html=1;entryX=-0.011;entryY=0.343;entryDx=0;entryDy=0;entryPerimeter=0;movable=0;resizable=0;rotatable=0;deletable=0;editable=0;locked=1;connectable=0;" edge="1" parent="1" source="wRFksBZOgdgdFvHQeMfU-30" target="wRFksBZOgdgdFvHQeMfU-31">
          <mxGeometry relative="1" as="geometry">
            <Array as="points">
              <mxPoint x="-1207" y="1633.5" />
              <mxPoint x="-1173" y="1633.5" />
            </Array>
          </mxGeometry>
        </mxCell>
        <mxCell id="s0sDFv0_OI3VWAacHpvH-2" style="edgeStyle=orthogonalEdgeStyle;rounded=0;orthogonalLoop=1;jettySize=auto;html=1;" edge="1" parent="1">
          <mxGeometry relative="1" as="geometry">
            <mxPoint x="-645" y="1721.5" as="sourcePoint" />
            <mxPoint x="-645" y="1641.5" as="targetPoint" />
          </mxGeometry>
        </mxCell>
        <mxCell id="s0sDFv0_OI3VWAacHpvH-1" value="Groupe" style="shape=umlActor;verticalLabelPosition=bottom;verticalAlign=top;html=1;outlineConnect=0;" vertex="1" parent="1">
          <mxGeometry x="-660" y="1741.5" width="30" height="60" as="geometry" />
        </mxCell>
        <mxCell id="s0sDFv0_OI3VWAacHpvH-5" value="Créer deck" style="ellipse;whiteSpace=wrap;html=1;" vertex="1" parent="1">
          <mxGeometry x="-315" y="1551.5" width="120" height="80" as="geometry" />
        </mxCell>
        <mxCell id="s0sDFv0_OI3VWAacHpvH-6" value="Utiliser deck" style="ellipse;whiteSpace=wrap;html=1;" vertex="1" parent="1">
          <mxGeometry x="-510" y="1461.5" width="120" height="80" as="geometry" />
        </mxCell>
        <mxCell id="s0sDFv0_OI3VWAacHpvH-9" value="Supprimer deck" style="ellipse;whiteSpace=wrap;html=1;" vertex="1" parent="1">
          <mxGeometry x="-510" y="1766.5" width="120" height="80" as="geometry" />
        </mxCell>
        <mxCell id="s0sDFv0_OI3VWAacHpvH-10" value="Modifier visibilité du deck" style="ellipse;whiteSpace=wrap;html=1;" vertex="1" parent="1">
          <mxGeometry x="-510" y="1889.5" width="120" height="80" as="geometry" />
        </mxCell>
        <mxCell id="s0sDFv0_OI3VWAacHpvH-11" value="Ajouter carte" style="ellipse;whiteSpace=wrap;html=1;" vertex="1" parent="1">
          <mxGeometry x="-315" y="1686.5" width="120" height="80" as="geometry" />
        </mxCell>
        <mxCell id="s0sDFv0_OI3VWAacHpvH-12" value="Supprimer carte" style="ellipse;whiteSpace=wrap;html=1;" vertex="1" parent="1">
          <mxGeometry x="-315" y="1830" width="120" height="80" as="geometry" />
        </mxCell>
        <mxCell id="s0sDFv0_OI3VWAacHpvH-16" value="" style="endArrow=none;html=1;rounded=0;entryX=0;entryY=1;entryDx=0;entryDy=0;" edge="1" parent="1" target="s0sDFv0_OI3VWAacHpvH-6">
          <mxGeometry width="50" height="50" relative="1" as="geometry">
            <mxPoint x="-625" y="1591.5" as="sourcePoint" />
            <mxPoint x="-325" y="1621.5" as="targetPoint" />
          </mxGeometry>
        </mxCell>
        <mxCell id="s0sDFv0_OI3VWAacHpvH-18" value="" style="endArrow=none;html=1;rounded=0;entryX=0;entryY=0;entryDx=0;entryDy=0;" edge="1" parent="1" target="s0sDFv0_OI3VWAacHpvH-9">
          <mxGeometry width="50" height="50" relative="1" as="geometry">
            <mxPoint x="-625" y="1591.5" as="sourcePoint" />
            <mxPoint x="-295" y="1621.5" as="targetPoint" />
          </mxGeometry>
        </mxCell>
        <mxCell id="s0sDFv0_OI3VWAacHpvH-19" value="" style="endArrow=none;html=1;rounded=0;entryX=0;entryY=0;entryDx=0;entryDy=0;" edge="1" parent="1" target="s0sDFv0_OI3VWAacHpvH-11">
          <mxGeometry width="50" height="50" relative="1" as="geometry">
            <mxPoint x="-625" y="1591.5" as="sourcePoint" />
            <mxPoint x="-315" y="1621.5" as="targetPoint" />
          </mxGeometry>
        </mxCell>
        <mxCell id="s0sDFv0_OI3VWAacHpvH-20" value="" style="endArrow=none;html=1;rounded=0;entryX=0;entryY=0;entryDx=0;entryDy=0;" edge="1" parent="1" target="s0sDFv0_OI3VWAacHpvH-12">
          <mxGeometry width="50" height="50" relative="1" as="geometry">
            <mxPoint x="-625" y="1591.5" as="sourcePoint" />
            <mxPoint x="-260" y="1816.5" as="targetPoint" />
          </mxGeometry>
        </mxCell>
        <mxCell id="s0sDFv0_OI3VWAacHpvH-23" value="" style="endArrow=none;html=1;rounded=0;entryX=0;entryY=0;entryDx=0;entryDy=0;" edge="1" parent="1" target="s0sDFv0_OI3VWAacHpvH-10">
          <mxGeometry width="50" height="50" relative="1" as="geometry">
            <mxPoint x="-625" y="1591.5" as="sourcePoint" />
            <mxPoint x="-295" y="1881.5" as="targetPoint" />
          </mxGeometry>
        </mxCell>
        <mxCell id="s0sDFv0_OI3VWAacHpvH-17" value="" style="endArrow=none;html=1;rounded=0;entryX=0;entryY=0.5;entryDx=0;entryDy=0;" edge="1" parent="1" target="s0sDFv0_OI3VWAacHpvH-5">
          <mxGeometry width="50" height="50" relative="1" as="geometry">
            <mxPoint x="-625" y="1591.5" as="sourcePoint" />
            <mxPoint x="-482" y="1579.5" as="targetPoint" />
          </mxGeometry>
        </mxCell>
        <mxCell id="dcCuuf07huxl4ICcwFyh-2" value="&lt;font style=&quot;font-size: 34px;&quot;&gt;Couverture minimale&lt;br&gt;&lt;/font&gt;" style="text;html=1;align=center;verticalAlign=middle;whiteSpace=wrap;rounded=0;movable=0;resizable=0;rotatable=0;deletable=0;editable=0;locked=1;connectable=0;" vertex="1" parent="1">
          <mxGeometry x="-1365" y="1233" width="220" height="104" as="geometry" />
        </mxCell>
        <mxCell id="dcCuuf07huxl4ICcwFyh-6" value="&lt;font style=&quot;font-size: 34px;&quot;&gt;Modèle conceptuel de données&lt;br&gt;&lt;/font&gt;" style="text;html=1;align=center;verticalAlign=middle;whiteSpace=wrap;rounded=0;" vertex="1" parent="1">
          <mxGeometry x="-1090" y="-40" width="460" height="120" as="geometry" />
        </mxCell>
        <mxCell id="dcCuuf07huxl4ICcwFyh-8" value="&lt;font style=&quot;font-size: 34px;&quot;&gt;Cas d&#39;utilisations&lt;br&gt;&lt;/font&gt;" style="text;html=1;align=center;verticalAlign=middle;whiteSpace=wrap;rounded=0;" vertex="1" parent="1">
          <mxGeometry x="-510" y="1247" width="220" height="90" as="geometry" />
        </mxCell>
        <mxCell id="ZZfkqGRecdgyC0SP_7qy-1" value="update : precondition" style="text;html=1;align=center;verticalAlign=middle;resizable=0;points=[];autosize=1;strokeColor=none;fillColor=none;" vertex="1" parent="1">
          <mxGeometry x="110" y="1438" width="140" height="30" as="geometry" />
        </mxCell>
        <mxCell id="pRmCqwYuW7Spn1c_g_u7-2" value="" style="endArrow=none;html=1;rounded=0;entryX=1;entryY=0.5;entryDx=0;entryDy=0;exitX=0;exitY=0.5;exitDx=0;exitDy=0;" edge="1" parent="1" source="wRFksBZOgdgdFvHQeMfU-1" target="wRFksBZOgdgdFvHQeMfU-1">
          <mxGeometry width="50" height="50" relative="1" as="geometry">
            <mxPoint x="-990" y="420" as="sourcePoint" />
            <mxPoint x="-940" y="370" as="targetPoint" />
          </mxGeometry>
        </mxCell>
        <mxCell id="pRmCqwYuW7Spn1c_g_u7-5" style="edgeStyle=orthogonalEdgeStyle;rounded=0;orthogonalLoop=1;jettySize=auto;html=1;" edge="1" parent="1" source="pRmCqwYuW7Spn1c_g_u7-3" target="_cF-SQx5Dlpob3jZO9Bn-6">
          <mxGeometry relative="1" as="geometry">
            <Array as="points">
              <mxPoint x="-1180" y="390" />
              <mxPoint x="-1180" y="390" />
            </Array>
          </mxGeometry>
        </mxCell>
        <mxCell id="pRmCqwYuW7Spn1c_g_u7-6" value="0, N" style="edgeLabel;html=1;align=center;verticalAlign=middle;resizable=0;points=[];" connectable="0" vertex="1" parent="pRmCqwYuW7Spn1c_g_u7-5">
          <mxGeometry x="-0.0252" y="1" relative="1" as="geometry">
            <mxPoint as="offset" />
          </mxGeometry>
        </mxCell>
        <mxCell id="pRmCqwYuW7Spn1c_g_u7-3" value="&lt;i&gt;user_follow&lt;br&gt;&lt;/i&gt;&lt;b&gt;Suivi&lt;br&gt;&lt;/b&gt;" style="ellipse;whiteSpace=wrap;html=1;align=center;" vertex="1" parent="1">
          <mxGeometry x="-1298.5" y="445" width="157" height="70" as="geometry" />
        </mxCell>
        <mxCell id="pRmCqwYuW7Spn1c_g_u7-10" value="" style="shape=tableRow;horizontal=0;startSize=0;swimlaneHead=0;swimlaneBody=0;fillColor=none;collapsible=0;dropTarget=0;points=[[0,0.5],[1,0.5]];portConstraint=eastwest;top=0;left=0;right=0;bottom=0;" vertex="1" parent="1">
          <mxGeometry x="-1320" y="350" width="200" height="30" as="geometry" />
        </mxCell>
        <mxCell id="pRmCqwYuW7Spn1c_g_u7-11" value="" style="shape=partialRectangle;connectable=0;fillColor=none;top=0;left=0;bottom=0;right=0;editable=1;overflow=hidden;whiteSpace=wrap;html=1;strokeColor=default;" vertex="1" parent="pRmCqwYuW7Spn1c_g_u7-10">
          <mxGeometry width="30" height="30" as="geometry">
            <mxRectangle width="30" height="30" as="alternateBounds" />
          </mxGeometry>
        </mxCell>
        <mxCell id="pRmCqwYuW7Spn1c_g_u7-13" value="" style="shape=tableRow;horizontal=0;startSize=0;swimlaneHead=0;swimlaneBody=0;fillColor=none;collapsible=0;dropTarget=0;points=[[0,0.5],[1,0.5]];portConstraint=eastwest;top=0;left=0;right=0;bottom=0;" vertex="1" parent="1">
          <mxGeometry x="-1320" y="350" width="200" height="30" as="geometry" />
        </mxCell>
        <mxCell id="pRmCqwYuW7Spn1c_g_u7-14" value="" style="shape=partialRectangle;connectable=0;fillColor=none;top=0;left=0;bottom=0;right=0;editable=1;overflow=hidden;whiteSpace=wrap;html=1;" vertex="1" parent="pRmCqwYuW7Spn1c_g_u7-13">
          <mxGeometry width="30" height="30" as="geometry">
            <mxRectangle width="30" height="30" as="alternateBounds" />
          </mxGeometry>
        </mxCell>
        <mxCell id="pRmCqwYuW7Spn1c_g_u7-15" value="description" style="shape=partialRectangle;connectable=0;fillColor=none;top=0;left=0;bottom=0;right=0;align=left;spacingLeft=6;overflow=hidden;whiteSpace=wrap;html=1;" vertex="1" parent="pRmCqwYuW7Spn1c_g_u7-13">
          <mxGeometry x="30" width="170" height="30" as="geometry">
            <mxRectangle width="170" height="30" as="alternateBounds" />
          </mxGeometry>
        </mxCell>
        <mxCell id="pRmCqwYuW7Spn1c_g_u7-21" style="edgeStyle=orthogonalEdgeStyle;rounded=0;orthogonalLoop=1;jettySize=auto;html=1;dashed=1;" edge="1" parent="1" source="pRmCqwYuW7Spn1c_g_u7-16" target="pRmCqwYuW7Spn1c_g_u7-19">
          <mxGeometry relative="1" as="geometry">
            <Array as="points">
              <mxPoint x="-495" y="365" />
              <mxPoint x="-495" y="443" />
            </Array>
          </mxGeometry>
        </mxCell>
        <mxCell id="pRmCqwYuW7Spn1c_g_u7-16" value="" style="shape=tableRow;horizontal=0;startSize=0;swimlaneHead=0;swimlaneBody=0;fillColor=none;collapsible=0;dropTarget=0;points=[[0,0.5],[1,0.5]];portConstraint=eastwest;top=0;left=0;right=0;bottom=0;" vertex="1" parent="1">
          <mxGeometry x="-764" y="350" width="204" height="30" as="geometry" />
        </mxCell>
        <mxCell id="pRmCqwYuW7Spn1c_g_u7-17" value="" style="shape=partialRectangle;connectable=0;fillColor=none;top=0;left=0;bottom=0;right=0;editable=1;overflow=hidden;whiteSpace=wrap;html=1;" vertex="1" parent="pRmCqwYuW7Spn1c_g_u7-16">
          <mxGeometry width="30" height="30" as="geometry">
            <mxRectangle width="30" height="30" as="alternateBounds" />
          </mxGeometry>
        </mxCell>
        <mxCell id="pRmCqwYuW7Spn1c_g_u7-18" value="color" style="shape=partialRectangle;connectable=0;fillColor=none;top=0;left=0;bottom=0;right=0;align=left;spacingLeft=6;overflow=hidden;whiteSpace=wrap;html=1;" vertex="1" parent="pRmCqwYuW7Spn1c_g_u7-16">
          <mxGeometry x="30" width="174" height="30" as="geometry">
            <mxRectangle width="174" height="30" as="alternateBounds" />
          </mxGeometry>
        </mxCell>
        <mxCell id="pRmCqwYuW7Spn1c_g_u7-19" value="&lt;i&gt;Colors&lt;/i&gt;" style="swimlane;childLayout=stackLayout;horizontal=1;startSize=30;horizontalStack=0;rounded=1;fontSize=14;fontStyle=0;strokeWidth=2;resizeParent=0;resizeLast=1;shadow=0;dashed=0;align=center;arcSize=4;whiteSpace=wrap;html=1;fillColor=default;" vertex="1" parent="1">
          <mxGeometry x="-430" y="365" width="120" height="155" as="geometry" />
        </mxCell>
        <mxCell id="pRmCqwYuW7Spn1c_g_u7-20" value="- red&lt;br&gt;- orange&lt;br&gt;- yellow&lt;br&gt;- green&lt;br&gt;- blue&lt;br&gt;- indigo&lt;br&gt;- purple" style="align=left;strokeColor=none;fillColor=none;spacingLeft=4;fontSize=12;verticalAlign=top;resizable=0;rotatable=0;part=1;html=1;" vertex="1" parent="pRmCqwYuW7Spn1c_g_u7-19">
          <mxGeometry y="30" width="120" height="125" as="geometry" />
        </mxCell>
        <mxCell id="pRmCqwYuW7Spn1c_g_u7-22" style="edgeStyle=orthogonalEdgeStyle;rounded=0;orthogonalLoop=1;jettySize=auto;html=1;dashed=1;" edge="1" parent="1" source="_cF-SQx5Dlpob3jZO9Bn-42" target="wRFksBZOgdgdFvHQeMfU-11">
          <mxGeometry relative="1" as="geometry" />
        </mxCell>
        <mxCell id="pRmCqwYuW7Spn1c_g_u7-24" value="deck_tags" style="shape=table;startSize=30;container=1;collapsible=1;childLayout=tableLayout;fixedRows=1;rowLines=0;fontStyle=1;align=center;resizeLast=1;html=1;" vertex="1" parent="1">
          <mxGeometry x="-690" y="555" width="200" height="150" as="geometry" />
        </mxCell>
        <mxCell id="pRmCqwYuW7Spn1c_g_u7-25" value="" style="shape=tableRow;horizontal=0;startSize=0;swimlaneHead=0;swimlaneBody=0;fillColor=none;collapsible=0;dropTarget=0;points=[[0,0.5],[1,0.5]];portConstraint=eastwest;top=0;left=0;right=0;bottom=1;" vertex="1" parent="pRmCqwYuW7Spn1c_g_u7-24">
          <mxGeometry y="30" width="200" height="30" as="geometry" />
        </mxCell>
        <mxCell id="pRmCqwYuW7Spn1c_g_u7-26" value="PK" style="shape=partialRectangle;connectable=0;fillColor=none;top=0;left=0;bottom=0;right=0;fontStyle=1;overflow=hidden;whiteSpace=wrap;html=1;" vertex="1" parent="pRmCqwYuW7Spn1c_g_u7-25">
          <mxGeometry width="30" height="30" as="geometry">
            <mxRectangle width="30" height="30" as="alternateBounds" />
          </mxGeometry>
        </mxCell>
        <mxCell id="pRmCqwYuW7Spn1c_g_u7-27" value="tag_id" style="shape=partialRectangle;connectable=0;fillColor=none;top=0;left=0;bottom=0;right=0;align=left;spacingLeft=6;fontStyle=5;overflow=hidden;whiteSpace=wrap;html=1;" vertex="1" parent="pRmCqwYuW7Spn1c_g_u7-25">
          <mxGeometry x="30" width="170" height="30" as="geometry">
            <mxRectangle width="170" height="30" as="alternateBounds" />
          </mxGeometry>
        </mxCell>
        <mxCell id="pRmCqwYuW7Spn1c_g_u7-28" value="" style="shape=tableRow;horizontal=0;startSize=0;swimlaneHead=0;swimlaneBody=0;fillColor=none;collapsible=0;dropTarget=0;points=[[0,0.5],[1,0.5]];portConstraint=eastwest;top=0;left=0;right=0;bottom=0;" vertex="1" parent="pRmCqwYuW7Spn1c_g_u7-24">
          <mxGeometry y="60" width="200" height="30" as="geometry" />
        </mxCell>
        <mxCell id="pRmCqwYuW7Spn1c_g_u7-29" value="" style="shape=partialRectangle;connectable=0;fillColor=none;top=0;left=0;bottom=0;right=0;editable=1;overflow=hidden;whiteSpace=wrap;html=1;" vertex="1" parent="pRmCqwYuW7Spn1c_g_u7-28">
          <mxGeometry width="30" height="30" as="geometry">
            <mxRectangle width="30" height="30" as="alternateBounds" />
          </mxGeometry>
        </mxCell>
        <mxCell id="pRmCqwYuW7Spn1c_g_u7-30" value="name" style="shape=partialRectangle;connectable=0;fillColor=none;top=0;left=0;bottom=0;right=0;align=left;spacingLeft=6;overflow=hidden;whiteSpace=wrap;html=1;" vertex="1" parent="pRmCqwYuW7Spn1c_g_u7-28">
          <mxGeometry x="30" width="170" height="30" as="geometry">
            <mxRectangle width="170" height="30" as="alternateBounds" />
          </mxGeometry>
        </mxCell>
        <mxCell id="pRmCqwYuW7Spn1c_g_u7-31" value="" style="shape=tableRow;horizontal=0;startSize=0;swimlaneHead=0;swimlaneBody=0;fillColor=none;collapsible=0;dropTarget=0;points=[[0,0.5],[1,0.5]];portConstraint=eastwest;top=0;left=0;right=0;bottom=0;" vertex="1" parent="pRmCqwYuW7Spn1c_g_u7-24">
          <mxGeometry y="90" width="200" height="30" as="geometry" />
        </mxCell>
        <mxCell id="pRmCqwYuW7Spn1c_g_u7-32" value="" style="shape=partialRectangle;connectable=0;fillColor=none;top=0;left=0;bottom=0;right=0;editable=1;overflow=hidden;whiteSpace=wrap;html=1;" vertex="1" parent="pRmCqwYuW7Spn1c_g_u7-31">
          <mxGeometry width="30" height="30" as="geometry">
            <mxRectangle width="30" height="30" as="alternateBounds" />
          </mxGeometry>
        </mxCell>
        <mxCell id="pRmCqwYuW7Spn1c_g_u7-33" value="" style="shape=partialRectangle;connectable=0;fillColor=none;top=0;left=0;bottom=0;right=0;align=left;spacingLeft=6;overflow=hidden;whiteSpace=wrap;html=1;" vertex="1" parent="pRmCqwYuW7Spn1c_g_u7-31">
          <mxGeometry x="30" width="170" height="30" as="geometry">
            <mxRectangle width="170" height="30" as="alternateBounds" />
          </mxGeometry>
        </mxCell>
        <mxCell id="pRmCqwYuW7Spn1c_g_u7-34" value="" style="shape=tableRow;horizontal=0;startSize=0;swimlaneHead=0;swimlaneBody=0;fillColor=none;collapsible=0;dropTarget=0;points=[[0,0.5],[1,0.5]];portConstraint=eastwest;top=0;left=0;right=0;bottom=0;" vertex="1" parent="pRmCqwYuW7Spn1c_g_u7-24">
          <mxGeometry y="120" width="200" height="30" as="geometry" />
        </mxCell>
        <mxCell id="pRmCqwYuW7Spn1c_g_u7-35" value="" style="shape=partialRectangle;connectable=0;fillColor=none;top=0;left=0;bottom=0;right=0;editable=1;overflow=hidden;whiteSpace=wrap;html=1;" vertex="1" parent="pRmCqwYuW7Spn1c_g_u7-34">
          <mxGeometry width="30" height="30" as="geometry">
            <mxRectangle width="30" height="30" as="alternateBounds" />
          </mxGeometry>
        </mxCell>
        <mxCell id="pRmCqwYuW7Spn1c_g_u7-36" value="" style="shape=partialRectangle;connectable=0;fillColor=none;top=0;left=0;bottom=0;right=0;align=left;spacingLeft=6;overflow=hidden;whiteSpace=wrap;html=1;" vertex="1" parent="pRmCqwYuW7Spn1c_g_u7-34">
          <mxGeometry x="30" width="170" height="30" as="geometry">
            <mxRectangle width="170" height="30" as="alternateBounds" />
          </mxGeometry>
        </mxCell>
        <mxCell id="pRmCqwYuW7Spn1c_g_u7-41" style="edgeStyle=orthogonalEdgeStyle;rounded=0;orthogonalLoop=1;jettySize=auto;html=1;" edge="1" parent="1" source="pRmCqwYuW7Spn1c_g_u7-39" target="pRmCqwYuW7Spn1c_g_u7-24">
          <mxGeometry relative="1" as="geometry" />
        </mxCell>
        <mxCell id="pRmCqwYuW7Spn1c_g_u7-42" value="1, 1" style="edgeLabel;html=1;align=center;verticalAlign=middle;resizable=0;points=[];" connectable="0" vertex="1" parent="pRmCqwYuW7Spn1c_g_u7-41">
          <mxGeometry x="0.5417" relative="1" as="geometry">
            <mxPoint y="-3" as="offset" />
          </mxGeometry>
        </mxCell>
        <mxCell id="pRmCqwYuW7Spn1c_g_u7-39" value="&lt;b&gt;Contient&lt;/b&gt;&lt;i&gt;&lt;br&gt;&lt;/i&gt;" style="ellipse;whiteSpace=wrap;html=1;align=center;" vertex="1" parent="1">
          <mxGeometry x="-680" y="440" width="137" height="55" as="geometry" />
        </mxCell>
        <mxCell id="pRmCqwYuW7Spn1c_g_u7-47" value="state" style="shape=partialRectangle;connectable=0;fillColor=none;top=0;left=0;bottom=0;right=0;align=left;spacingLeft=6;overflow=hidden;whiteSpace=wrap;html=1;" vertex="1" parent="1">
          <mxGeometry x="-898.5" y="705" width="170" height="30" as="geometry">
            <mxRectangle width="170" height="30" as="alternateBounds" />
          </mxGeometry>
        </mxCell>
      </root>
    </mxGraphModel>
  </diagram>
</mxfile>
